<?xml version="1.0" standalone="no"?>
<!DOCTYPE svg PUBLIC "-//W3C//DTD SVG 20010904//EN"
 "http://www.w3.org/TR/2001/REC-SVG-20010904/DTD/svg10.dtd">
<svg version="1.0" xmlns="http://www.w3.org/2000/svg"
 width="260.000000pt" height="260.000000pt" viewBox="0 0 260.000000 260.000000"
 preserveAspectRatio="xMidYMid meet">
<metadata>
Created by potrace 1.11, written by Peter Selinger 2001-2013
</metadata>
<g transform="translate(0.000000,260.000000) scale(0.100000,-0.100000)"
fill="#000000" stroke="none">
<path d="M1985 2136 c-70 -33 -123 -89 -161 -171 -33 -69 -38 -91 -50 -192 -7
-58 -11 -55 66 -55 133 0 130 0 130 30 1 39 33 105 65 130 46 37 117 27 156
-22 48 -59 57 -225 17 -306 -32 -62 -66 -80 -156 -80 l-70 0 1 -127 2 -127 60
-2 c88 -1 121 -12 150 -45 57 -69 71 -249 26 -337 -42 -81 -130 -107 -192 -55
-37 32 -68 95 -69 140 0 39 -11 42 -120 40 l-75 -2 -1 -50 c-3 -110 56 -263
128 -332 60 -57 114 -78 203 -79 44 -1 85 2 90 6 6 4 21 10 35 13 14 4 48 27
77 52 66 58 118 160 136 266 13 72 14 220 3 267 -3 12 -8 31 -11 43 -15 70
-103 199 -135 199 -7 0 7 21 31 48 75 85 111 196 108 338 -4 208 -94 373 -226
418 -70 24 -158 21 -218 -8z"/>
<path d="M250 1325 l0 -815 318 0 318 0 0 135 1 135 -218 0 -217 0 0 668 c-1
367 -1 673 -1 680 -1 9 -28 12 -101 12 l-100 0 0 -815z"/>
<path d="M1233 2022 l-202 -117 -1 -133 0 -132 110 55 c60 30 113 55 117 55 5
0 8 -279 8 -620 l-1 -620 98 0 98 0 0 815 c0 645 -3 815 -12 815 -7 0 -104
-53 -215 -118z"/>
</g>
</svg>
